# 3ds Max Wavefront OBJ Exporter v0.99 - (c)2007 guruware
# File Created: 20.08.2023 18:09:44

mtllib 1.mtl

#
# object Box001
#

v  -83.168114 -0.000012 105.013405
v  82.761436 -0.000012 105.013405
v  -83.168114 -0.000012 -105.479149
v  82.761436 -0.000012 -105.479149
v  -83.168114 136.647842 105.013405
v  82.761436 136.647842 105.013405
v  -83.168114 136.647842 -105.479149
v  82.761436 136.647842 -105.479149
v  -0.203337 234.760254 105.013405
v  -0.203337 234.760254 -105.479149
v  -0.203337 -0.000012 -105.479149
v  -0.203337 -0.000012 105.013405
v  -0.203337 136.647842 105.013405
v  -0.203337 136.647842 -105.479149
# 14 vertices

vt 1.000000 0.000000 0.000000
vt 0.000000 0.000000 0.000000
vt 1.000000 1.000000 0.000000
vt 0.000000 1.000000 0.000000
vt 0.000000 0.000000 0.000000
vt 1.000000 0.000000 0.000000
vt 0.000000 1.000000 0.000000
vt 1.000000 1.000000 0.000000
vt 0.000000 0.000000 0.000000
vt 1.000000 0.000000 0.000000
vt 0.000000 1.000000 0.000000
vt 1.000000 1.000000 0.000000
vt 0.000000 0.000000 0.000000
vt 1.000000 0.000000 0.000000
vt 0.000000 1.000000 0.000000
vt 1.000000 1.000000 0.000000
vt 0.000000 0.000000 0.000000
vt 1.000000 0.000000 0.000000
vt 0.000000 1.000000 0.000000
vt 1.000000 1.000000 0.000000
vt 0.000000 0.000000 0.000000
vt 1.000000 0.000000 0.000000
vt 0.000000 1.000000 0.000000
vt 1.000000 1.000000 0.000000
vt 0.000000 0.000000 0.000000
vt 1.000000 1.000000 0.000000
vt 0.500000 1.000000 0.000000
vt 0.500000 0.000000 0.000000
vt 0.500000 0.000000 0.000000
vt 0.500000 0.000000 0.000000
vt 0.500000 0.000000 0.000000
vt 0.500000 1.000000 0.000000
vt 0.500000 1.000000 0.000000
vt 0.500000 1.000000 0.000000
# 34 texture coords

o Box001
g Box001
usemtl 1___Default
f 1/1 3/3 11/27 12/29 
f 1/9 12/30 13/32 5/11 
f 2/13 4/14 8/16 6/15 
f 4/17 11/28 14/34 8/19 
f 3/21 1/22 5/24 7/23 
f 5/5 13/31 9/25 
f 6/6 8/8 10/26 9/25 
f 8/8 14/33 10/26 
f 7/7 5/5 9/25 10/26 
f 11/27 4/4 2/2 12/29 
f 12/30 2/10 6/12 13/32 
f 11/28 3/18 7/20 14/34 
f 13/31 6/6 9/25 
f 14/33 7/7 10/26 
# 10 polygons - 4 triangles

#
# object Box002
#

v  68.425865 -0.000011 107.946617
v  85.806885 -0.000011 107.946617
v  68.425865 -0.000011 91.557350
v  85.806885 -0.000011 91.557350
v  68.425865 153.180191 107.946625
v  85.806885 138.708267 107.946625
v  68.425865 153.180191 91.557350
v  85.806885 138.708267 91.557350
v  68.425865 -0.000011 -92.468704
v  68.425865 -0.000011 -108.858002
v  85.806885 -0.000011 -108.858002
v  85.806885 -0.000011 -92.468704
v  68.425865 153.180191 -92.468704
v  85.806885 138.708267 -92.468704
v  85.806885 138.708267 -108.858002
v  68.425865 153.180191 -108.858002
v  -85.641159 -0.000008 -92.468704
v  -85.641159 -0.000008 -108.858002
v  -68.260132 -0.000008 -108.858002
v  -68.260132 -0.000008 -92.468704
v  -85.641159 138.708267 -92.468704
v  -68.260132 153.589874 -92.468704
v  -68.260132 153.589874 -108.858002
v  -85.641159 138.708267 -108.858002
v  -85.641159 -0.000008 107.946655
v  -85.641159 -0.000008 91.557365
v  -68.260132 -0.000008 91.557365
v  -68.260132 -0.000008 107.946655
v  -85.641159 138.708267 107.946655
v  -68.260132 153.589874 107.946655
v  -68.260132 153.589874 91.557365
v  -85.641159 138.708267 91.557365
# 32 vertices

vt 1.000000 0.000000 0.000000
vt 0.000000 0.000000 0.000000
vt 1.000000 1.000000 0.000000
vt 0.000000 1.000000 0.000000
vt 0.000000 0.000000 0.000000
vt 1.000000 0.000000 0.000000
vt 0.000000 1.000000 0.000000
vt 1.000000 1.000000 0.000000
vt 0.000000 0.000000 0.000000
vt 1.000000 0.000000 0.000000
vt 0.000000 1.000000 0.000000
vt 1.000000 1.000000 0.000000
vt 0.000000 0.000000 0.000000
vt 1.000000 0.000000 0.000000
vt 0.000000 1.000000 0.000000
vt 1.000000 1.000000 0.000000
vt 0.000000 0.000000 0.000000
vt 1.000000 0.000000 0.000000
vt 0.000000 1.000000 0.000000
vt 1.000000 1.000000 0.000000
vt 0.000000 0.000000 0.000000
vt 1.000000 0.000000 0.000000
vt 0.000000 1.000000 0.000000
vt 1.000000 1.000000 0.000000
vt 1.000000 0.000000 0.000000
vt 1.000000 1.000000 0.000000
vt 0.000000 1.000000 0.000000
vt 0.000000 0.000000 0.000000
vt 0.000000 0.000000 0.000000
vt 1.000000 0.000000 0.000000
vt 1.000000 1.000000 0.000000
vt 0.000000 1.000000 0.000000
vt 0.000000 0.000000 0.000000
vt 1.000000 0.000000 0.000000
vt 1.000000 1.000000 0.000000
vt 0.000000 1.000000 0.000000
vt 0.000000 0.000000 0.000000
vt 1.000000 0.000000 0.000000
vt 1.000000 1.000000 0.000000
vt 0.000000 1.000000 0.000000
vt 0.000000 0.000000 0.000000
vt 1.000000 0.000000 0.000000
vt 1.000000 1.000000 0.000000
vt 0.000000 1.000000 0.000000
vt 0.000000 0.000000 0.000000
vt 1.000000 0.000000 0.000000
vt 1.000000 1.000000 0.000000
vt 0.000000 1.000000 0.000000
vt 1.000000 0.000000 0.000000
vt 1.000000 1.000000 0.000000
vt 0.000000 1.000000 0.000000
vt 0.000000 0.000000 0.000000
vt 0.000000 0.000000 0.000000
vt 1.000000 0.000000 0.000000
vt 1.000000 1.000000 0.000000
vt 0.000000 1.000000 0.000000
vt 0.000000 0.000000 0.000000
vt 1.000000 0.000000 0.000000
vt 1.000000 1.000000 0.000000
vt 0.000000 1.000000 0.000000
vt 0.000000 0.000000 0.000000
vt 1.000000 0.000000 0.000000
vt 1.000000 1.000000 0.000000
vt 0.000000 1.000000 0.000000
vt 0.000000 0.000000 0.000000
vt 1.000000 0.000000 0.000000
vt 1.000000 1.000000 0.000000
vt 0.000000 1.000000 0.000000
vt 0.000000 0.000000 0.000000
vt 1.000000 0.000000 0.000000
vt 1.000000 1.000000 0.000000
vt 0.000000 1.000000 0.000000
vt 1.000000 0.000000 0.000000
vt 1.000000 1.000000 0.000000
vt 0.000000 1.000000 0.000000
vt 0.000000 0.000000 0.000000
vt 0.000000 0.000000 0.000000
vt 1.000000 0.000000 0.000000
vt 1.000000 1.000000 0.000000
vt 0.000000 1.000000 0.000000
vt 0.000000 0.000000 0.000000
vt 1.000000 0.000000 0.000000
vt 1.000000 1.000000 0.000000
vt 0.000000 1.000000 0.000000
vt 0.000000 0.000000 0.000000
vt 1.000000 0.000000 0.000000
vt 1.000000 1.000000 0.000000
vt 0.000000 1.000000 0.000000
vt 0.000000 0.000000 0.000000
vt 1.000000 0.000000 0.000000
vt 1.000000 1.000000 0.000000
vt 0.000000 1.000000 0.000000
vt 0.000000 0.000000 0.000000
vt 1.000000 0.000000 0.000000
vt 1.000000 1.000000 0.000000
vt 0.000000 1.000000 0.000000
# 96 texture coords

o Box002
g Box002
usemtl 01___Default
f 15/35 17/37 18/38 16/36 
f 19/39 20/40 22/42 21/41 
f 15/43 16/44 20/46 19/45 
f 16/47 18/48 22/50 20/49 
f 18/51 17/52 21/54 22/53 
f 17/55 15/56 19/58 21/57 
f 23/59 24/60 25/61 26/62 
f 27/63 28/64 29/65 30/66 
f 23/67 26/68 28/69 27/70 
f 26/71 25/72 29/73 28/74 
f 25/75 24/76 30/77 29/78 
f 24/79 23/80 27/81 30/82 
f 31/83 32/84 33/85 34/86 
f 35/87 36/88 37/89 38/90 
f 31/91 34/92 36/93 35/94 
f 34/95 33/96 37/97 36/98 
f 33/99 32/100 38/101 37/102 
f 32/103 31/104 35/105 38/106 
f 39/107 40/108 41/109 42/110 
f 43/111 44/112 45/113 46/114 
f 39/115 42/116 44/117 43/118 
f 42/119 41/120 45/121 44/122 
f 41/123 40/124 46/125 45/126 
f 40/127 39/128 43/129 46/130 
# 24 polygons

#
# object Object003
#

v  10.739467 216.424255 -131.978912
v  -10.271001 216.424255 -131.978897
v  -21.942629 241.985962 -131.978897
v  22.411083 241.985977 -131.978912
v  10.739478 216.424255 130.540482
v  22.411106 241.985962 130.540482
v  -21.942612 241.985962 130.540482
v  -10.270989 216.424255 130.540482
# 8 vertices

vt 1.000000 0.000000 0.000000
vt 1.000000 1.000000 0.000000
vt 0.000000 1.000000 0.000000
vt 0.000000 0.000000 0.000000
vt 0.000000 0.000000 0.000000
vt 1.000000 0.000000 0.000000
vt 1.000000 1.000000 0.000000
vt 0.000000 1.000000 0.000000
vt 0.000000 0.000000 0.000000
vt 1.000000 0.000000 0.000000
vt 1.000000 1.000000 0.000000
vt 0.000000 1.000000 0.000000
vt 0.000000 0.000000 0.000000
vt 1.000000 0.000000 0.000000
vt 1.000000 1.000000 0.000000
vt 0.000000 1.000000 0.000000
vt 0.000000 0.000000 0.000000
vt 1.000000 0.000000 0.000000
vt 1.000000 1.000000 0.000000
vt 0.000000 1.000000 0.000000
vt 0.000000 0.000000 0.000000
vt 1.000000 0.000000 0.000000
vt 1.000000 1.000000 0.000000
vt 0.000000 1.000000 0.000000
# 24 texture coords

o Object003
g Object003
usemtl 01___Default
f 47/131 48/132 49/133 50/134 
f 51/135 52/136 53/137 54/138 
f 47/139 50/140 52/141 51/142 
f 50/143 49/144 53/145 52/146 
f 49/147 48/148 54/149 53/150 
f 48/151 47/152 51/153 54/154 
# 6 polygons

#
# object Object006
#

v  105.935661 132.148376 109.617012
v  103.493774 134.986145 125.769295
v  90.589447 123.337021 125.809090
v  93.031342 120.499245 109.656822
v  17.754799 236.954468 109.338203
v  6.668343 223.050293 125.476952
v  18.819092 235.696991 125.763115
v  70.652664 145.852585 105.344292
v  46.950928 173.389923 103.021004
v  23.933029 201.531860 105.347588
v  37.650230 212.211945 105.306908
v  60.265549 184.562210 103.021019
v  83.556976 157.501709 105.304497
v  68.210770 148.690369 121.496574
v  46.950928 173.389923 119.410271
v  26.328918 198.602631 121.494682
v  81.115089 160.339493 121.456795
v  60.265556 184.562210 119.410286
v  40.046112 209.282715 121.454002
v  4.253868 226.002884 109.333733
# 20 vertices

vt 1.000000 0.000000 0.000000
vt 1.000000 1.000000 0.000000
vt 0.000000 1.000000 0.000000
vt 0.000000 0.000000 0.000000
vt 0.000000 0.000000 0.000000
vt 1.000000 1.000000 0.000000
vt 0.000000 1.000000 0.000000
vt 0.000000 0.000000 0.000000
vt 0.000000 1.000000 0.000000
vt 0.000000 0.000000 0.000000
vt 1.000000 0.000000 0.000000
vt 1.000000 1.000000 0.000000
vt 0.000000 0.000000 0.000000
vt 1.000000 0.000000 0.000000
vt 1.000000 1.000000 0.000000
vt 0.000000 1.000000 0.000000
vt 0.000000 0.000000 0.000000
vt 1.000000 0.000000 0.000000
vt 1.000000 1.000000 0.000000
vt 0.000000 1.000000 0.000000
vt 0.000000 0.250000 0.000000
vt 0.000000 0.500000 0.000000
vt 0.000000 0.750000 0.000000
vt 0.000000 0.750000 0.000000
vt 0.000000 0.500000 0.000000
vt 0.000000 0.250000 0.000000
vt 1.000000 0.750000 0.000000
vt 1.000000 0.500000 0.000000
vt 1.000000 0.250000 0.000000
vt 1.000000 0.250000 0.000000
vt 1.000000 0.500000 0.000000
vt 1.000000 0.750000 0.000000
vt 0.000000 0.250000 0.000000
vt 0.000000 0.500000 0.000000
vt 0.000000 0.750000 0.000000
vt 1.000000 0.250000 0.000000
vt 1.000000 0.500000 0.000000
vt 1.000000 0.750000 0.000000
vt 0.000000 0.250000 0.000000
vt 0.000000 0.500000 0.000000
vt 0.000000 0.750000 0.000000
vt 0.550000 0.000000 0.000000
vt 0.550000 1.000000 0.000000
# 43 texture coords

o Object006
g Object006
usemtl 01___Default
f 55/155 56/156 57/157 58/158 
f 59/159 74/196 60/160 61/161 
f 68/184 69/185 63/176 62/175 
f 71/190 72/191 69/188 68/187 
f 67/183 66/182 72/194 71/193 
f 67/180 55/162 58/158 62/175 
f 70/186 60/166 74/196 64/177 
f 69/185 70/186 64/177 63/176 
f 62/175 58/164 57/165 68/184 
f 73/192 61/169 60/170 70/189 
f 72/191 73/192 70/189 69/188 
f 68/187 57/167 56/168 71/190 
f 65/181 59/173 61/174 73/195 
f 66/182 65/181 73/195 72/194 
f 71/193 56/171 55/172 67/183 
f 63/176 66/179 67/180 62/175 
f 74/197 59/163 65/178 64/177 
f 64/177 65/178 66/179 63/176 
# 18 polygons

#
# object Object008
#

v  -70.353546 142.968231 -93.863708
v  -70.353546 142.968231 -107.158554
v  -70.353546 128.868896 -107.158554
v  -70.353546 128.868896 -93.863708
v  75.303947 142.968231 -93.863708
v  75.303947 128.868881 -93.863708
v  75.303947 128.868881 -107.158554
v  75.303947 142.968231 -107.158554
# 8 vertices

vt 1.000000 0.000000 0.000000
vt 1.000000 1.000000 0.000000
vt 0.000000 1.000000 0.000000
vt 0.000000 0.000000 0.000000
vt 0.000000 0.000000 0.000000
vt 1.000000 0.000000 0.000000
vt 1.000000 1.000000 0.000000
vt 0.000000 1.000000 0.000000
vt 0.000000 0.000000 0.000000
vt 1.000000 0.000000 0.000000
vt 1.000000 1.000000 0.000000
vt 0.000000 1.000000 0.000000
vt 0.000000 0.000000 0.000000
vt 1.000000 0.000000 0.000000
vt 1.000000 1.000000 0.000000
vt 0.000000 1.000000 0.000000
vt 0.000000 0.000000 0.000000
vt 1.000000 0.000000 0.000000
vt 1.000000 1.000000 0.000000
vt 0.000000 1.000000 0.000000
vt 0.000000 0.000000 0.000000
vt 1.000000 0.000000 0.000000
vt 1.000000 1.000000 0.000000
vt 0.000000 1.000000 0.000000
# 24 texture coords

o Object008
g Object008
usemtl 01___Default
f 75/198 76/199 77/200 78/201 
f 79/202 80/203 81/204 82/205 
f 75/206 78/207 80/208 79/209 
f 78/210 77/211 81/212 80/213 
f 77/214 76/215 82/216 81/217 
f 76/218 75/219 79/220 82/221 
# 6 polygons

#
# object Object009
#

v  -89.831596 122.191658 110.995552
v  -87.460960 125.089226 127.147835
v  -101.173920 135.774658 127.187630
v  -103.544563 132.877090 111.035362
v  -2.714050 226.269241 110.517570
v  -15.843674 237.663361 110.513084
v  -18.332123 234.772858 126.656319
v  -3.767609 225.002777 126.942482
v  -82.462402 159.318344 106.722832
v  -59.459167 187.441818 104.399544
v  -35.741791 214.996826 106.726128
v  -22.841980 203.342590 106.685448
v  -46.144562 176.269516 104.399559
v  -68.749435 148.632935 106.683037
v  -80.091766 162.215912 122.875114
v  -59.459167 187.441818 120.788811
v  -38.210480 212.128677 122.873222
v  -66.378799 151.530487 122.835335
v  -46.144562 176.269501 120.788826
v  -25.310699 200.474442 122.832542
# 20 vertices

vt 1.000000 0.000000 0.000000
vt 1.000000 1.000000 0.000000
vt 0.000000 1.000000 0.000000
vt 0.000000 0.000000 0.000000
vt 0.000000 0.000000 0.000000
vt 1.000000 0.000000 0.000000
vt 1.000000 1.000000 0.000000
vt 0.000000 1.000000 0.000000
vt 0.000000 0.000000 0.000000
vt 1.000000 0.000000 0.000000
vt 1.000000 1.000000 0.000000
vt 0.000000 1.000000 0.000000
vt 0.000000 0.000000 0.000000
vt 1.000000 0.000000 0.000000
vt 1.000000 1.000000 0.000000
vt 0.000000 1.000000 0.000000
vt 0.000000 0.000000 0.000000
vt 1.000000 0.000000 0.000000
vt 1.000000 1.000000 0.000000
vt 0.000000 1.000000 0.000000
vt 0.000000 0.000000 0.000000
vt 1.000000 0.000000 0.000000
vt 1.000000 1.000000 0.000000
vt 0.000000 1.000000 0.000000
vt 1.000000 0.250000 0.000000
vt 1.000000 0.500000 0.000000
vt 1.000000 0.750000 0.000000
vt 0.000000 0.250000 0.000000
vt 0.000000 0.500000 0.000000
vt 0.000000 0.750000 0.000000
vt 0.000000 0.750000 0.000000
vt 0.000000 0.500000 0.000000
vt 0.000000 0.250000 0.000000
vt 1.000000 0.750000 0.000000
vt 1.000000 0.500000 0.000000
vt 1.000000 0.250000 0.000000
vt 1.000000 0.250000 0.000000
vt 1.000000 0.500000 0.000000
vt 1.000000 0.750000 0.000000
vt 0.000000 0.250000 0.000000
vt 0.000000 0.500000 0.000000
vt 0.000000 0.750000 0.000000
vt 1.000000 0.250000 0.000000
vt 1.000000 0.500000 0.000000
vt 1.000000 0.750000 0.000000
vt 0.000000 0.250000 0.000000
vt 0.000000 0.500000 0.000000
vt 0.000000 0.750000 0.000000
# 48 texture coords

o Object009
g Object009
usemtl 01___Default
f 83/222 84/223 85/224 86/225 
f 87/226 88/227 89/228 90/229 
f 91/246 92/247 95/253 96/254 
f 97/258 98/259 92/250 91/249 
f 100/264 101/265 98/262 97/261 
f 96/257 95/256 101/268 100/267 
f 93/248 88/232 87/233 94/252 
f 92/247 93/248 94/252 95/253 
f 96/254 83/230 86/231 91/246 
f 99/260 89/236 88/237 93/251 
f 98/259 99/260 93/251 92/250 
f 91/249 86/234 85/235 97/258 
f 102/266 90/240 89/241 99/263 
f 101/265 102/266 99/263 98/262 
f 97/261 85/238 84/239 100/264 
f 94/255 87/244 90/245 102/269 
f 95/256 94/255 102/269 101/268 
f 100/267 84/242 83/243 96/257 
# 18 polygons

#
# object Object010
#

v  -103.935837 134.665375 -112.917206
v  -101.493950 137.503143 -129.069489
v  -88.589622 125.854019 -129.109283
v  -91.031517 123.016243 -112.957016
v  -17.454033 237.573517 -112.403580
v  -3.953102 226.621933 -112.399124
v  -6.367577 223.669357 -128.542343
v  -18.518341 236.316055 -128.828506
v  -68.652832 148.369583 -108.644485
v  -44.951096 175.906921 -106.321213
v  -21.933197 204.048859 -108.647797
v  -35.650398 214.728943 -108.607117
v  -58.265717 187.079208 -106.321228
v  -81.557144 160.018707 -108.604691
v  -66.210945 151.207367 -124.796768
v  -44.951096 175.906921 -122.710480
v  -24.329094 201.119629 -124.794891
v  -79.115265 162.856491 -124.756989
v  -58.265732 187.079208 -122.710495
v  -38.046288 211.799713 -124.754211
# 20 vertices

vt 1.000000 0.000000 0.000000
vt 1.000000 1.000000 0.000000
vt 0.000000 1.000000 0.000000
vt 0.000000 0.000000 0.000000
vt 0.000000 0.000000 0.000000
vt 1.000000 0.000000 0.000000
vt 1.000000 1.000000 0.000000
vt 0.000000 1.000000 0.000000
vt 0.000000 0.000000 0.000000
vt 1.000000 0.000000 0.000000
vt 1.000000 1.000000 0.000000
vt 0.000000 1.000000 0.000000
vt 0.000000 0.000000 0.000000
vt 1.000000 0.000000 0.000000
vt 1.000000 1.000000 0.000000
vt 0.000000 1.000000 0.000000
vt 0.000000 0.000000 0.000000
vt 1.000000 0.000000 0.000000
vt 1.000000 1.000000 0.000000
vt 0.000000 1.000000 0.000000
vt 0.000000 0.000000 0.000000
vt 1.000000 0.000000 0.000000
vt 1.000000 1.000000 0.000000
vt 0.000000 1.000000 0.000000
vt 1.000000 0.250000 0.000000
vt 1.000000 0.500000 0.000000
vt 1.000000 0.750000 0.000000
vt 0.000000 0.250000 0.000000
vt 0.000000 0.500000 0.000000
vt 0.000000 0.750000 0.000000
vt 0.000000 0.750000 0.000000
vt 0.000000 0.500000 0.000000
vt 0.000000 0.250000 0.000000
vt 1.000000 0.750000 0.000000
vt 1.000000 0.500000 0.000000
vt 1.000000 0.250000 0.000000
vt 1.000000 0.250000 0.000000
vt 1.000000 0.500000 0.000000
vt 1.000000 0.750000 0.000000
vt 0.000000 0.250000 0.000000
vt 0.000000 0.500000 0.000000
vt 0.000000 0.750000 0.000000
vt 1.000000 0.250000 0.000000
vt 1.000000 0.500000 0.000000
vt 1.000000 0.750000 0.000000
vt 0.000000 0.250000 0.000000
vt 0.000000 0.500000 0.000000
vt 0.000000 0.750000 0.000000
# 48 texture coords

o Object010
g Object010
usemtl 01___Default
f 103/270 104/271 105/272 106/273 
f 107/274 108/275 109/276 110/277 
f 111/294 112/295 115/301 116/302 
f 117/306 118/307 112/298 111/297 
f 120/312 121/313 118/310 117/309 
f 116/305 115/304 121/316 120/315 
f 113/296 108/280 107/281 114/300 
f 112/295 113/296 114/300 115/301 
f 116/302 103/278 106/279 111/294 
f 119/308 109/284 108/285 113/299 
f 118/307 119/308 113/299 112/298 
f 111/297 106/282 105/283 117/306 
f 122/314 110/288 109/289 119/311 
f 121/313 122/314 119/311 118/310 
f 117/309 105/286 104/287 120/312 
f 114/303 107/292 110/293 122/317 
f 115/304 114/303 122/317 121/316 
f 120/315 104/290 103/291 116/305 
# 18 polygons

#
# object Object011
#

v  92.715645 120.953224 -112.435463
v  90.345009 123.850792 -128.587738
v  104.057968 134.536224 -128.627533
v  106.428612 131.638657 -112.475273
v  4.333633 226.639679 -112.146080
v  17.463272 238.033783 -112.141594
v  19.951691 235.143295 -128.284790
v  5.387177 225.373230 -128.570984
v  85.346451 158.079910 -108.162743
v  62.343216 186.203384 -105.839455
v  38.625839 213.758392 -108.166039
v  25.726044 202.104156 -108.125359
v  49.028610 175.031082 -105.839470
v  71.633484 147.394501 -108.122948
v  82.975815 160.977478 -124.315025
v  62.343216 186.203384 -122.228722
v  41.094543 210.890244 -124.313133
v  69.262848 150.292053 -124.275246
v  49.028610 175.031067 -122.228737
v  28.194733 199.236008 -124.272453
# 20 vertices

vt 1.000000 0.000000 0.000000
vt 1.000000 1.000000 0.000000
vt 0.000000 1.000000 0.000000
vt 0.000000 0.000000 0.000000
vt 0.000000 0.000000 0.000000
vt 1.000000 0.000000 0.000000
vt 1.000000 1.000000 0.000000
vt 0.000000 1.000000 0.000000
vt 0.000000 0.000000 0.000000
vt 1.000000 0.000000 0.000000
vt 1.000000 1.000000 0.000000
vt 0.000000 1.000000 0.000000
vt 0.000000 0.000000 0.000000
vt 1.000000 0.000000 0.000000
vt 1.000000 1.000000 0.000000
vt 0.000000 1.000000 0.000000
vt 0.000000 0.000000 0.000000
vt 1.000000 0.000000 0.000000
vt 1.000000 1.000000 0.000000
vt 0.000000 1.000000 0.000000
vt 0.000000 0.000000 0.000000
vt 1.000000 0.000000 0.000000
vt 1.000000 1.000000 0.000000
vt 0.000000 1.000000 0.000000
vt 1.000000 0.250000 0.000000
vt 1.000000 0.500000 0.000000
vt 1.000000 0.750000 0.000000
vt 0.000000 0.250000 0.000000
vt 0.000000 0.500000 0.000000
vt 0.000000 0.750000 0.000000
vt 0.000000 0.750000 0.000000
vt 0.000000 0.500000 0.000000
vt 0.000000 0.250000 0.000000
vt 1.000000 0.750000 0.000000
vt 1.000000 0.500000 0.000000
vt 1.000000 0.250000 0.000000
vt 1.000000 0.250000 0.000000
vt 1.000000 0.500000 0.000000
vt 1.000000 0.750000 0.000000
vt 0.000000 0.250000 0.000000
vt 0.000000 0.500000 0.000000
vt 0.000000 0.750000 0.000000
vt 1.000000 0.250000 0.000000
vt 1.000000 0.500000 0.000000
vt 1.000000 0.750000 0.000000
vt 0.000000 0.250000 0.000000
vt 0.000000 0.500000 0.000000
vt 0.000000 0.750000 0.000000
# 48 texture coords

o Object011
g Object011
usemtl 01___Default
f 123/318 124/319 125/320 126/321 
f 127/322 128/323 129/324 130/325 
f 131/342 132/343 135/349 136/350 
f 137/354 138/355 132/346 131/345 
f 140/360 141/361 138/358 137/357 
f 136/353 135/352 141/364 140/363 
f 133/344 128/328 127/329 134/348 
f 132/343 133/344 134/348 135/349 
f 136/350 123/326 126/327 131/342 
f 139/356 129/332 128/333 133/347 
f 138/355 139/356 133/347 132/346 
f 131/345 126/330 125/331 137/354 
f 142/362 130/336 129/337 139/359 
f 141/361 142/362 139/359 138/358 
f 137/357 125/334 124/335 140/360 
f 134/351 127/340 130/341 142/365 
f 135/352 134/351 142/365 141/364 
f 140/363 124/338 123/339 136/353 
# 18 polygons

#
# object Object012
#

v  -7.601105 136.647858 -106.485947
v  7.194489 136.647873 -106.485947
v  7.194489 136.647873 -93.816727
v  -7.601105 136.647873 -93.816727
v  -7.601120 222.753113 -106.485962
v  -7.601120 222.753113 -93.816742
v  7.194473 222.753113 -93.816742
v  7.194473 222.753113 -106.485962
# 8 vertices

vt 1.000000 0.000000 0.000000
vt 1.000000 1.000000 0.000000
vt 0.000000 1.000000 0.000000
vt 0.000000 0.000000 0.000000
vt 0.000000 0.000000 0.000000
vt 1.000000 0.000000 0.000000
vt 1.000000 1.000000 0.000000
vt 0.000000 1.000000 0.000000
vt 0.000000 0.000000 0.000000
vt 1.000000 0.000000 0.000000
vt 1.000000 1.000000 0.000000
vt 0.000000 1.000000 0.000000
vt 0.000000 0.000000 0.000000
vt 1.000000 0.000000 0.000000
vt 1.000000 1.000000 0.000000
vt 0.000000 1.000000 0.000000
vt 0.000000 0.000000 0.000000
vt 1.000000 0.000000 0.000000
vt 1.000000 1.000000 0.000000
vt 0.000000 1.000000 0.000000
vt 0.000000 0.000000 0.000000
vt 1.000000 0.000000 0.000000
vt 1.000000 1.000000 0.000000
vt 0.000000 1.000000 0.000000
# 24 texture coords

o Object012
g Object012
usemtl 01___Default
f 143/366 144/367 145/368 146/369 
f 147/370 148/371 149/372 150/373 
f 143/374 146/375 148/376 147/377 
f 146/378 145/379 149/380 148/381 
f 145/382 144/383 150/384 149/385 
f 144/386 143/387 147/388 150/389 
# 6 polygons

#
# object Object013
#

v  -0.021225 141.914658 -106.224129
v  10.440857 131.452576 -106.224129
v  10.440857 131.452576 -93.554909
v  -0.021225 141.914658 -93.554909
v  43.454971 185.390884 -106.224136
v  43.454971 185.390884 -93.554916
v  53.917068 174.928787 -93.554916
v  53.917068 174.928787 -106.224136
# 8 vertices

vt 1.000000 0.000000 0.000000
vt 1.000000 1.000000 0.000000
vt 0.000000 1.000000 0.000000
vt 0.000000 0.000000 0.000000
vt 0.000000 0.000000 0.000000
vt 1.000000 0.000000 0.000000
vt 1.000000 1.000000 0.000000
vt 0.000000 1.000000 0.000000
vt 0.000000 0.000000 0.000000
vt 1.000000 0.000000 0.000000
vt 1.000000 1.000000 0.000000
vt 0.000000 1.000000 0.000000
vt 0.000000 0.000000 0.000000
vt 1.000000 0.000000 0.000000
vt 1.000000 1.000000 0.000000
vt 0.000000 1.000000 0.000000
vt 0.000000 0.000000 0.000000
vt 1.000000 0.000000 0.000000
vt 1.000000 1.000000 0.000000
vt 0.000000 1.000000 0.000000
vt 0.000000 0.000000 0.000000
vt 1.000000 0.000000 0.000000
vt 1.000000 1.000000 0.000000
vt 0.000000 1.000000 0.000000
# 24 texture coords

o Object013
g Object013
usemtl 01___Default
f 151/390 152/391 153/392 154/393 
f 155/394 156/395 157/396 158/397 
f 151/398 154/399 156/400 155/401 
f 154/402 153/403 157/404 156/405 
f 153/406 152/407 158/408 157/409 
f 152/410 151/411 155/412 158/413 
# 6 polygons

#
# object Object014
#

v  -2.095520 141.914642 -93.554924
v  -12.557602 131.452560 -93.554924
v  -12.557602 131.452560 -106.224144
v  -2.095520 141.914642 -106.224144
v  -42.816605 182.635742 -93.554909
v  -42.816605 182.635742 -106.224129
v  -53.278687 172.173645 -106.224129
v  -53.278687 172.173645 -93.554909
# 8 vertices

vt 1.000000 0.000000 0.000000
vt 1.000000 1.000000 0.000000
vt 0.000000 1.000000 0.000000
vt 0.000000 0.000000 0.000000
vt 0.000000 0.000000 0.000000
vt 1.000000 0.000000 0.000000
vt 1.000000 1.000000 0.000000
vt 0.000000 1.000000 0.000000
vt 0.000000 0.000000 0.000000
vt 1.000000 0.000000 0.000000
vt 1.000000 1.000000 0.000000
vt 0.000000 1.000000 0.000000
vt 0.000000 0.000000 0.000000
vt 1.000000 0.000000 0.000000
vt 1.000000 1.000000 0.000000
vt 0.000000 1.000000 0.000000
vt 0.000000 0.000000 0.000000
vt 1.000000 0.000000 0.000000
vt 1.000000 1.000000 0.000000
vt 0.000000 1.000000 0.000000
vt 0.000000 0.000000 0.000000
vt 1.000000 0.000000 0.000000
vt 1.000000 1.000000 0.000000
vt 0.000000 1.000000 0.000000
# 24 texture coords

o Object014
g Object014
usemtl 01___Default
f 159/414 160/415 161/416 162/417 
f 163/418 164/419 165/420 166/421 
f 159/422 162/423 164/424 163/425 
f 162/426 161/427 165/428 164/429 
f 161/430 160/431 166/432 165/433 
f 160/434 159/435 163/436 166/437 
# 6 polygons

#
# object Object015
#

v  70.972977 142.968231 93.312828
v  70.972977 142.968231 106.607674
v  70.972977 128.868896 106.607674
v  70.972977 128.868896 93.312828
v  -74.684532 142.968231 93.312813
v  -74.684532 128.868896 93.312813
v  -74.684532 128.868896 106.607658
v  -74.684532 142.968231 106.607658
# 8 vertices

vt 1.000000 0.000000 0.000000
vt 1.000000 1.000000 0.000000
vt 0.000000 1.000000 0.000000
vt 0.000000 0.000000 0.000000
vt 0.000000 0.000000 0.000000
vt 1.000000 0.000000 0.000000
vt 1.000000 1.000000 0.000000
vt 0.000000 1.000000 0.000000
vt 0.000000 0.000000 0.000000
vt 1.000000 0.000000 0.000000
vt 1.000000 1.000000 0.000000
vt 0.000000 1.000000 0.000000
vt 0.000000 0.000000 0.000000
vt 1.000000 0.000000 0.000000
vt 1.000000 1.000000 0.000000
vt 0.000000 1.000000 0.000000
vt 0.000000 0.000000 0.000000
vt 1.000000 0.000000 0.000000
vt 1.000000 1.000000 0.000000
vt 0.000000 1.000000 0.000000
vt 0.000000 0.000000 0.000000
vt 1.000000 0.000000 0.000000
vt 1.000000 1.000000 0.000000
vt 0.000000 1.000000 0.000000
# 24 texture coords

o Object015
g Object015
usemtl 01___Default
f 167/438 168/439 169/440 170/441 
f 171/442 172/443 173/444 174/445 
f 167/446 170/447 172/448 171/449 
f 170/450 169/451 173/452 172/453 
f 169/454 168/455 174/456 173/457 
f 168/458 167/459 171/460 174/461 
# 6 polygons

#
# object Object016
#

v  8.220535 136.647858 105.935066
v  -6.575058 136.647873 105.935066
v  -6.575058 136.647873 93.265846
v  8.220535 136.647873 93.265846
v  8.220551 222.753113 105.935081
v  8.220551 222.753113 93.265862
v  -6.575043 222.753113 93.265862
v  -6.575043 222.753113 105.935081
# 8 vertices

vt 1.000000 0.000000 0.000000
vt 1.000000 1.000000 0.000000
vt 0.000000 1.000000 0.000000
vt 0.000000 0.000000 0.000000
vt 0.000000 0.000000 0.000000
vt 1.000000 0.000000 0.000000
vt 1.000000 1.000000 0.000000
vt 0.000000 1.000000 0.000000
vt 0.000000 0.000000 0.000000
vt 1.000000 0.000000 0.000000
vt 1.000000 1.000000 0.000000
vt 0.000000 1.000000 0.000000
vt 0.000000 0.000000 0.000000
vt 1.000000 0.000000 0.000000
vt 1.000000 1.000000 0.000000
vt 0.000000 1.000000 0.000000
vt 0.000000 0.000000 0.000000
vt 1.000000 0.000000 0.000000
vt 1.000000 1.000000 0.000000
vt 0.000000 1.000000 0.000000
vt 0.000000 0.000000 0.000000
vt 1.000000 0.000000 0.000000
vt 1.000000 1.000000 0.000000
vt 0.000000 1.000000 0.000000
# 24 texture coords

o Object016
g Object016
usemtl 01___Default
f 175/462 176/463 177/464 178/465 
f 179/466 180/467 181/468 182/469 
f 175/470 178/471 180/472 179/473 
f 178/474 177/475 181/476 180/477 
f 177/478 176/479 182/480 181/481 
f 176/482 175/483 179/484 182/485 
# 6 polygons

#
# object Object017
#

v  0.640656 141.914658 105.673256
v  -9.821411 131.452576 105.673256
v  -9.821411 131.452576 93.004036
v  0.640671 141.914658 93.004036
v  -41.696899 184.252258 105.673256
v  -41.696899 184.252258 93.004036
v  -52.158997 173.790161 93.004036
v  -52.158997 173.790161 105.673256
# 8 vertices

vt 1.000000 0.000000 0.000000
vt 1.000000 1.000000 0.000000
vt 0.000000 1.000000 0.000000
vt 0.000000 0.000000 0.000000
vt 0.000000 0.000000 0.000000
vt 1.000000 0.000000 0.000000
vt 1.000000 1.000000 0.000000
vt 0.000000 1.000000 0.000000
vt 0.000000 0.000000 0.000000
vt 1.000000 0.000000 0.000000
vt 1.000000 1.000000 0.000000
vt 0.000000 1.000000 0.000000
vt 0.000000 0.000000 0.000000
vt 1.000000 0.000000 0.000000
vt 1.000000 1.000000 0.000000
vt 0.000000 1.000000 0.000000
vt 0.000000 0.000000 0.000000
vt 1.000000 0.000000 0.000000
vt 1.000000 1.000000 0.000000
vt 0.000000 1.000000 0.000000
vt 0.000000 0.000000 0.000000
vt 1.000000 0.000000 0.000000
vt 1.000000 1.000000 0.000000
vt 0.000000 1.000000 0.000000
# 24 texture coords

o Object017
g Object017
usemtl 01___Default
f 183/486 184/487 185/488 186/489 
f 187/490 188/491 189/492 190/493 
f 183/494 186/495 188/496 187/497 
f 186/498 185/499 189/500 188/501 
f 185/502 184/503 190/504 189/505 
f 184/506 183/507 187/508 190/509 
# 6 polygons

#
# object Object018
#

v  2.714951 141.914642 93.004036
v  13.177032 131.452560 93.004036
v  13.177032 131.452560 105.673256
v  2.714951 141.914642 105.673256
v  43.553375 182.753098 93.004028
v  43.553375 182.753098 105.673248
v  54.015472 172.291000 105.673248
v  54.015472 172.291000 93.004028
# 8 vertices

vt 1.000000 0.000000 0.000000
vt 1.000000 1.000000 0.000000
vt 0.000000 1.000000 0.000000
vt 0.000000 0.000000 0.000000
vt 0.000000 0.000000 0.000000
vt 1.000000 0.000000 0.000000
vt 1.000000 1.000000 0.000000
vt 0.000000 1.000000 0.000000
vt 0.000000 0.000000 0.000000
vt 1.000000 0.000000 0.000000
vt 1.000000 1.000000 0.000000
vt 0.000000 1.000000 0.000000
vt 0.000000 0.000000 0.000000
vt 1.000000 0.000000 0.000000
vt 1.000000 1.000000 0.000000
vt 0.000000 1.000000 0.000000
vt 0.000000 0.000000 0.000000
vt 1.000000 0.000000 0.000000
vt 1.000000 1.000000 0.000000
vt 0.000000 1.000000 0.000000
vt 0.000000 0.000000 0.000000
vt 1.000000 0.000000 0.000000
vt 1.000000 1.000000 0.000000
vt 0.000000 1.000000 0.000000
# 24 texture coords

o Object018
g Object018
usemtl 01___Default
f 191/510 192/511 193/512 194/513 
f 195/514 196/515 197/516 198/517 
f 191/518 194/519 196/520 195/521 
f 194/522 193/523 197/524 196/525 
f 193/526 192/527 198/528 197/529 
f 192/530 191/531 195/532 198/533 
# 6 polygons

#
# object Object
#

#
# object Box003
#

v  7.573994 225.218399 114.396568
v  91.136383 125.632614 114.396568
v  7.573994 225.218399 -115.603432
v  91.136383 125.632614 -115.603432
v  12.936306 229.717911 114.396568
v  96.498703 130.132141 114.396568
v  12.936306 229.717911 -115.603432
v  96.498703 130.132141 -115.603432
v  70.888580 149.763016 -115.603432
v  74.076561 152.757416 -115.603432
v  74.076561 152.757416 114.396568
v  70.888580 149.763016 114.396568
v  49.997978 174.659470 -115.603432
v  53.185959 177.653870 -115.603432
v  53.185959 177.653870 114.396568
v  49.997978 174.659470 114.396568
v  32.295357 202.550323 114.396568
v  29.107380 199.555908 114.396568
v  29.107380 199.555908 -115.603432
v  32.295357 202.550323 -115.603432
v  76.250885 154.262527 114.396568
v  79.438873 157.256943 114.396568
v  79.438873 157.256943 -115.603432
v  76.250885 154.262527 -115.603432
v  55.360291 179.158981 114.396568
v  58.548271 182.153381 114.396568
v  58.548271 182.153381 -115.603432
v  55.360291 179.158981 -115.603432
v  37.657669 207.049835 -115.603432
v  34.469688 204.055420 -115.603432
v  34.469688 204.055420 114.396568
v  37.657669 207.049835 114.396568
# 32 vertices

vt 1.000000 0.000000 0.000000
vt 0.000000 0.000000 0.000000
vt 1.000000 1.000000 0.000000
vt 0.000000 1.000000 0.000000
vt 0.000000 0.000000 0.000000
vt 1.000000 0.000000 0.000000
vt 0.000000 1.000000 0.000000
vt 1.000000 1.000000 0.000000
vt 0.000000 0.000000 0.000000
vt 1.000000 0.000000 0.000000
vt 0.000000 1.000000 0.000000
vt 1.000000 1.000000 0.000000
vt 0.000000 0.000000 0.000000
vt 1.000000 0.000000 0.000000
vt 0.000000 1.000000 0.000000
vt 1.000000 1.000000 0.000000
vt 0.000000 0.000000 0.000000
vt 1.000000 0.000000 0.000000
vt 0.000000 1.000000 0.000000
vt 1.000000 1.000000 0.000000
vt 0.000000 0.000000 0.000000
vt 1.000000 0.000000 0.000000
vt 0.000000 1.000000 0.000000
vt 1.000000 1.000000 0.000000
vt 0.242308 0.000000 0.000000
vt 0.242308 1.000000 0.000000
vt 0.257692 1.000000 0.000000
vt 0.257692 0.000000 0.000000
vt 0.742308 0.000000 0.000000
vt 0.257692 0.000000 0.000000
vt 0.242308 0.000000 0.000000
vt 0.757692 0.000000 0.000000
vt 0.492308 0.000000 0.000000
vt 0.492308 1.000000 0.000000
vt 0.507692 1.000000 0.000000
vt 0.507692 0.000000 0.000000
vt 0.492308 0.000000 0.000000
vt 0.507692 0.000000 0.000000
vt 0.492308 0.000000 0.000000
vt 0.507692 0.000000 0.000000
vt 0.242308 0.000000 0.000000
vt 0.757692 0.000000 0.000000
vt 0.742308 0.000000 0.000000
vt 0.257692 0.000000 0.000000
vt 0.742308 0.000000 0.000000
vt 0.742308 1.000000 0.000000
vt 0.757692 1.000000 0.000000
vt 0.757692 0.000000 0.000000
vt 0.757692 1.000000 0.000000
vt 0.757692 0.000000 0.000000
vt 0.742308 0.000000 0.000000
vt 0.742308 1.000000 0.000000
vt 0.257692 1.000000 0.000000
vt 0.742308 1.000000 0.000000
vt 0.757692 1.000000 0.000000
vt 0.242308 1.000000 0.000000
vt 0.507692 1.000000 0.000000
vt 0.507692 0.000000 0.000000
vt 0.492308 0.000000 0.000000
vt 0.492308 1.000000 0.000000
vt 0.507692 1.000000 0.000000
vt 0.492308 1.000000 0.000000
vt 0.507692 1.000000 0.000000
vt 0.492308 1.000000 0.000000
vt 0.757692 1.000000 0.000000
vt 0.242308 1.000000 0.000000
vt 0.257692 1.000000 0.000000
vt 0.742308 1.000000 0.000000
vt 0.257692 1.000000 0.000000
vt 0.257692 0.000000 0.000000
vt 0.242308 0.000000 0.000000
vt 0.242308 1.000000 0.000000
# 72 texture coords

o Box003
g Box003
usemtl 11___Default
f 217/579 212/568 213/571 216/576 
f 229/603 224/592 225/595 228/600 
f 216/577 213/570 224/593 229/602 
f 200/546 202/547 206/549 204/548 
f 208/561 211/566 226/597 221/586 
f 201/554 199/555 203/557 205/556 
f 207/559 202/537 200/535 210/564 
f 211/567 208/560 209/563 214/572 
f 215/575 199/534 201/536 218/580 
f 219/583 204/539 206/541 222/588 
f 223/591 220/584 221/587 226/596 
f 227/599 205/540 203/538 230/604 
f 210/565 200/543 204/545 219/582 
f 214/573 209/562 220/585 223/590 
f 230/605 203/544 199/542 215/574 
f 218/581 201/551 205/553 227/598 
f 212/569 217/578 228/601 225/594 
f 222/589 206/552 202/550 207/558 
f 213/571 212/568 211/567 214/572 
f 217/579 216/576 215/575 218/580 
f 225/595 224/592 223/591 226/596 
f 229/603 228/600 227/599 230/604 
f 224/593 213/570 214/573 223/590 
f 216/577 229/602 230/605 215/574 
f 226/597 211/566 212/569 225/594 
f 208/561 221/586 222/589 207/558 
f 209/563 208/560 207/559 210/564 
f 221/587 220/584 219/583 222/588 
f 220/585 209/562 210/565 219/582 
f 228/601 217/578 218/581 227/598 
# 30 polygons

#
# object Box004
#

v  -4.822514 227.060028 114.396568
v  -88.384918 127.474228 114.396568
v  -4.822514 227.060028 -115.603432
v  -88.384918 127.474228 -115.603432
v  -10.184834 231.559525 114.396568
v  -93.747223 131.973755 114.396568
v  -10.184834 231.559525 -115.603432
v  -93.747223 131.973755 -115.603432
v  -68.137108 151.604630 -115.603432
v  -71.325089 154.599030 -115.603432
v  -71.325089 154.599030 114.396568
v  -68.137108 151.604630 114.396568
v  -47.246510 176.501083 -115.603432
v  -50.434490 179.495483 -115.603432
v  -50.434490 179.495483 114.396568
v  -47.246510 176.501083 114.396568
v  -29.543888 204.391937 114.396568
v  -26.355907 201.397522 114.396568
v  -26.355907 201.397522 -115.603432
v  -29.543888 204.391937 -115.603432
v  -73.499420 156.104141 114.396568
v  -76.687401 159.098541 114.396568
v  -76.687401 159.098541 -115.603432
v  -73.499420 156.104141 -115.603432
v  -52.608818 181.000595 114.396568
v  -55.796803 183.994995 114.396568
v  -55.796803 183.994995 -115.603432
v  -52.608818 181.000595 -115.603432
v  -34.906197 208.891449 -115.603432
v  -31.718216 205.897034 -115.603432
v  -31.718216 205.897034 114.396568
v  -34.906197 208.891449 114.396568
# 32 vertices

vt 1.000000 0.000000 0.000000
vt 0.000000 0.000000 0.000000
vt 1.000000 1.000000 0.000000
vt 0.000000 1.000000 0.000000
vt 0.000000 0.000000 0.000000
vt 1.000000 0.000000 0.000000
vt 0.000000 1.000000 0.000000
vt 1.000000 1.000000 0.000000
vt 0.000000 0.000000 0.000000
vt 1.000000 0.000000 0.000000
vt 0.000000 1.000000 0.000000
vt 1.000000 1.000000 0.000000
vt 0.000000 0.000000 0.000000
vt 1.000000 0.000000 0.000000
vt 0.000000 1.000000 0.000000
vt 1.000000 1.000000 0.000000
vt 0.000000 0.000000 0.000000
vt 1.000000 0.000000 0.000000
vt 0.000000 1.000000 0.000000
vt 1.000000 1.000000 0.000000
vt 0.000000 0.000000 0.000000
vt 1.000000 0.000000 0.000000
vt 0.000000 1.000000 0.000000
vt 1.000000 1.000000 0.000000
vt 0.242308 0.000000 0.000000
vt 0.242308 1.000000 0.000000
vt 0.257692 1.000000 0.000000
vt 0.257692 0.000000 0.000000
vt 0.742308 0.000000 0.000000
vt 0.257692 0.000000 0.000000
vt 0.242308 0.000000 0.000000
vt 0.757692 0.000000 0.000000
vt 0.492308 0.000000 0.000000
vt 0.492308 1.000000 0.000000
vt 0.507692 1.000000 0.000000
vt 0.507692 0.000000 0.000000
vt 0.492308 0.000000 0.000000
vt 0.507692 0.000000 0.000000
vt 0.492308 0.000000 0.000000
vt 0.507692 0.000000 0.000000
vt 0.242308 0.000000 0.000000
vt 0.757692 0.000000 0.000000
vt 0.742308 0.000000 0.000000
vt 0.257692 0.000000 0.000000
vt 0.742308 0.000000 0.000000
vt 0.742308 1.000000 0.000000
vt 0.757692 1.000000 0.000000
vt 0.757692 0.000000 0.000000
vt 0.757692 1.000000 0.000000
vt 0.757692 0.000000 0.000000
vt 0.742308 0.000000 0.000000
vt 0.742308 1.000000 0.000000
vt 0.257692 1.000000 0.000000
vt 0.742308 1.000000 0.000000
vt 0.757692 1.000000 0.000000
vt 0.242308 1.000000 0.000000
vt 0.507692 1.000000 0.000000
vt 0.507692 0.000000 0.000000
vt 0.492308 0.000000 0.000000
vt 0.492308 1.000000 0.000000
vt 0.507692 1.000000 0.000000
vt 0.492308 1.000000 0.000000
vt 0.507692 1.000000 0.000000
vt 0.492308 1.000000 0.000000
vt 0.757692 1.000000 0.000000
vt 0.242308 1.000000 0.000000
vt 0.257692 1.000000 0.000000
vt 0.742308 1.000000 0.000000
vt 0.257692 1.000000 0.000000
vt 0.257692 0.000000 0.000000
vt 0.242308 0.000000 0.000000
vt 0.242308 1.000000 0.000000
# 72 texture coords

o Box004
g Box004
usemtl 11___Default
f 248/648 245/643 244/640 249/651 
f 260/672 257/667 256/664 261/675 
f 261/674 256/665 245/642 248/649 
f 236/620 238/621 234/619 232/618 
f 253/658 258/669 243/638 240/633 
f 237/628 235/629 231/627 233/626 
f 242/636 232/607 234/609 239/631 
f 246/644 241/635 240/632 243/639 
f 250/652 233/608 231/606 247/647 
f 254/660 238/613 236/611 251/655 
f 258/668 253/659 252/656 255/663 
f 262/676 235/610 237/612 259/671 
f 251/654 236/617 232/615 242/637 
f 255/662 252/657 241/634 246/645 
f 247/646 231/614 235/616 262/677 
f 259/670 237/625 233/623 250/653 
f 257/666 260/673 249/650 244/641 
f 239/630 234/622 238/624 254/661 
f 246/644 243/639 244/640 245/643 
f 250/652 247/647 248/648 249/651 
f 258/668 255/663 256/664 257/667 
f 262/676 259/671 260/672 261/675 
f 255/662 246/645 245/642 256/665 
f 247/646 262/677 261/674 248/649 
f 257/666 244/641 243/638 258/669 
f 239/630 254/661 253/658 240/633 
f 242/636 239/631 240/632 241/635 
f 254/660 251/655 252/656 253/659 
f 251/654 242/637 241/634 252/657 
f 259/670 250/653 249/650 260/673 
# 30 polygons

#
# object Box005
#

v  -40.000000 0.000000 108.794540
v  40.000000 0.000000 108.794540
v  -40.000000 0.000000 103.794540
v  40.000000 0.000000 103.794540
v  -40.000000 120.000000 108.794540
v  40.000000 120.000000 108.794540
v  -40.000000 120.000000 103.794540
v  40.000000 120.000000 103.794540
v  -30.600000 0.000000 103.794540
v  30.599998 0.000000 103.794540
v  30.600000 0.000000 108.794540
v  -30.599998 0.000000 108.794540
v  -30.600000 120.000000 108.794540
v  30.599998 120.000000 108.794540
v  30.600000 120.000000 103.794540
v  -30.599998 120.000000 103.794540
v  40.000000 111.000000 108.794540
v  -40.000000 111.000000 108.794540
v  40.000000 111.000000 103.794540
v  -40.000000 111.000000 103.794540
v  30.599998 111.000000 108.794540
v  -30.600000 111.000000 108.794540
v  -30.599998 111.000000 103.794540
v  30.600000 111.000000 103.794540
# 24 vertices

vt 1.000000 0.000000 0.000000
vt 0.000000 0.000000 0.000000
vt 1.000000 1.000000 0.000000
vt 0.000000 1.000000 0.000000
vt 0.000000 0.000000 0.000000
vt 1.000000 0.000000 0.000000
vt 0.000000 1.000000 0.000000
vt 1.000000 1.000000 0.000000
vt 0.000000 0.000000 0.000000
vt 1.000000 0.000000 0.000000
vt 0.000000 1.000000 0.000000
vt 1.000000 1.000000 0.000000
vt 0.000000 0.000000 0.000000
vt 1.000000 0.000000 0.000000
vt 0.000000 1.000000 0.000000
vt 1.000000 1.000000 0.000000
vt 0.000000 0.000000 0.000000
vt 1.000000 0.000000 0.000000
vt 0.000000 1.000000 0.000000
vt 1.000000 1.000000 0.000000
vt 0.000000 0.000000 0.000000
vt 1.000000 0.000000 0.000000
vt 0.000000 1.000000 0.000000
vt 1.000000 1.000000 0.000000
vt 0.882500 1.000000 0.000000
vt 0.117500 1.000000 0.000000
vt 0.882500 0.000000 0.000000
vt 0.117500 0.000000 0.000000
vt 0.117500 0.000000 0.000000
vt 0.882500 0.000000 0.000000
vt 0.882500 0.000000 0.000000
vt 0.117500 0.000000 0.000000
vt 0.117500 0.000000 0.000000
vt 0.882500 0.000000 0.000000
vt 0.117500 1.000000 0.000000
vt 0.882500 1.000000 0.000000
vt 0.882500 1.000000 0.000000
vt 0.117500 1.000000 0.000000
vt 0.117500 1.000000 0.000000
vt 0.882500 1.000000 0.000000
vt 1.000000 0.925000 0.000000
vt 0.000000 0.925000 0.000000
vt 0.000000 0.925000 0.000000
vt 1.000000 0.925000 0.000000
vt 1.000000 0.925000 0.000000
vt 0.000000 0.925000 0.000000
vt 1.000000 0.925000 0.000000
vt 0.000000 0.925000 0.000000
vt 0.882500 0.925000 0.000000
vt 0.117500 0.925000 0.000000
vt 0.882500 0.925000 0.000000
vt 0.117500 0.925000 0.000000
# 52 texture coords

o Box005
g Box005
usemtl 01___Default
f 275/710 276/711 277/714 278/715 
f 264/690 266/691 281/722 279/719 
f 265/698 263/699 280/721 282/725 
f 272/703 266/681 264/679 273/706 
f 274/707 263/678 265/680 271/702 
f 276/711 268/683 270/685 277/714 
f 278/715 269/684 267/682 275/710 
f 273/708 264/687 279/718 283/726 
f 275/712 267/688 280/720 284/727 
f 271/704 265/695 282/724 285/728 
f 277/716 270/696 281/723 286/729 
f 283/726 276/713 275/712 284/727 
f 281/722 270/693 268/692 279/719 
f 285/728 278/717 277/716 286/729 
f 280/721 267/701 269/700 282/725 
f 279/718 268/689 276/713 283/726 
f 280/720 263/686 274/709 284/727 
f 282/724 269/697 278/717 285/728 
f 281/723 266/694 272/705 286/729 
f 273/706 283/726 286/729 272/705 
f 284/727 274/709 271/702 285/728 
f 283/726 284/727 285/728 286/729 
# 22 polygons

#
# object Object020
#

v  -30.600000 0.000000 104.153114
v  30.599998 0.000000 104.153114
v  30.600000 0.000000 106.228920
v  -30.599998 0.000000 106.228920
v  30.599998 111.000000 106.228920
v  -30.600000 111.000000 106.228920
v  -30.599998 111.000000 104.153114
v  30.600000 111.000000 104.153114
v  15.274249 0.000168 104.615013
v  15.999997 0.000000 104.153114
v  14.599998 0.000000 104.153114
v  15.274252 0.000168 105.767021
v  14.600001 0.000000 106.228920
v  16.000002 0.000000 106.228920
v  -0.000001 0.000000 104.615013
v  0.699998 0.000000 104.153114
v  -0.700002 0.000000 104.153114
v  0.000001 0.000000 105.767021
v  -0.699998 0.000000 106.228920
v  0.700002 0.000000 106.228920
v  -15.299998 0.000000 105.767021
v  -15.999997 0.000000 106.228920
v  -14.599998 0.000000 106.228920
v  -15.300001 0.000000 104.615013
v  -14.600001 0.000000 104.153114
v  -16.000002 0.000000 104.153114
v  15.325748 110.999825 105.767021
v  14.599999 111.000000 106.228920
v  15.999999 111.000000 106.228920
v  0.000000 111.000000 105.767021
v  -0.700000 111.000000 106.228920
v  0.700000 111.000000 106.228920
v  -15.300000 111.000000 105.767021
v  -15.999999 111.000000 106.228920
v  -14.599999 111.000000 106.228920
v  -15.300000 111.000000 104.615013
v  -14.599999 111.000000 104.153114
v  -15.999999 111.000000 104.153114
v  0.000000 111.000000 104.615013
v  0.700000 111.000000 104.153114
v  -0.700000 111.000000 104.153114
v  15.325748 110.999825 104.615013
v  15.999999 111.000000 104.153114
v  14.599999 111.000000 104.153114
# 44 vertices

vt 0.882500 0.000000 0.000000
vt 0.882500 1.000000 0.000000
vt 0.117500 1.000000 0.000000
vt 0.117500 0.000000 0.000000
vt 0.882500 0.000000 0.000000
vt 0.117500 0.000000 0.000000
vt 0.882500 0.000000 0.000000
vt 0.117500 0.000000 0.000000
vt 0.882500 0.925000 0.000000
vt 0.117500 0.925000 0.000000
vt 0.882500 0.925000 0.000000
vt 0.117500 0.925000 0.000000
vt 0.691250 1.000000 0.000000
vt 0.500000 1.000000 0.000000
vt 0.308750 1.000000 0.000000
vt 0.691250 0.000000 0.000000
vt 0.500000 0.000000 0.000000
vt 0.308750 0.000000 0.000000
vt 0.308750 0.000000 0.000000
vt 0.500000 0.000000 0.000000
vt 0.691250 0.000000 0.000000
vt 0.691250 0.000000 0.000000
vt 0.500000 0.000000 0.000000
vt 0.308750 0.000000 0.000000
vt 0.691250 0.925000 0.000000
vt 0.500000 0.925000 0.000000
vt 0.308750 0.925000 0.000000
vt 0.691250 0.925000 0.000000
vt 0.500000 0.925000 0.000000
vt 0.308750 0.925000 0.000000
vt 0.300000 0.000000 0.000000
vt 0.300000 1.000000 0.000000
vt 0.317500 1.000000 0.000000
vt 0.317500 0.000000 0.000000
vt 0.682500 0.000000 0.000000
vt 0.317500 0.000000 0.000000
vt 0.300000 0.000000 0.000000
vt 0.700000 0.000000 0.000000
vt 0.491250 0.000000 0.000000
vt 0.491250 1.000000 0.000000
vt 0.508750 1.000000 0.000000
vt 0.508750 0.000000 0.000000
vt 0.491250 0.000000 0.000000
vt 0.508750 0.000000 0.000000
vt 0.491250 0.000000 0.000000
vt 0.508750 0.000000 0.000000
vt 0.300000 0.000000 0.000000
vt 0.700000 0.000000 0.000000
vt 0.682500 0.000000 0.000000
vt 0.317500 0.000000 0.000000
vt 0.682500 0.000000 0.000000
vt 0.682500 1.000000 0.000000
vt 0.700000 1.000000 0.000000
vt 0.700000 0.000000 0.000000
vt 0.682500 0.925000 0.000000
vt 0.700000 0.925000 0.000000
vt 0.491250 0.925000 0.000000
vt 0.508750 0.925000 0.000000
vt 0.300000 0.925000 0.000000
vt 0.317500 0.925000 0.000000
vt 0.682500 0.925000 0.000000
vt 0.700000 0.925000 0.000000
vt 0.491250 0.925000 0.000000
vt 0.508750 0.925000 0.000000
vt 0.300000 0.925000 0.000000
vt 0.317500 0.925000 0.000000
# 66 texture coords

o Object020
g Object020
usemtl 21___Default
f 311/781 303/770 305/773 309/778 
f 309/779 305/772 317/786 321/789 
f 297/763 302/768 326/792 330/795 
f 288/732 294/741 291/738 289/734 
f 330/795 326/792 318/787 314/784 
f 293/740 287/730 290/736 292/739 
f 296/761 288/732 289/735 300/766 
f 302/769 297/762 299/765 306/774 
f 308/777 290/736 287/731 312/782 
f 300/767 289/734 291/738 315/785 
f 306/775 299/764 314/784 318/787 
f 320/788 292/739 290/737 308/776 
f 312/783 287/730 293/740 324/791 
f 303/771 311/780 323/790 327/793 
f 329/794 294/741 288/733 296/760 
f 324/791 293/740 292/739 320/788 
f 327/793 323/790 321/789 317/786 
f 315/785 291/738 294/741 329/794 
f 305/773 303/770 301/743 304/749 
f 311/781 309/778 307/750 310/742 
f 317/786 305/772 304/752 316/755 
f 309/779 321/789 319/756 307/753 
f 326/792 302/768 301/746 325/758 
f 297/763 330/795 328/759 295/747 
f 318/787 326/792 325/758 316/755 
f 330/795 314/784 313/754 328/759 
f 296/761 300/766 298/748 295/744 
f 299/765 297/762 295/744 298/748 
f 302/769 306/774 304/749 301/743 
f 308/777 312/782 310/742 307/750 
f 300/767 315/785 313/754 298/751 
f 314/784 299/764 298/751 313/754 
f 306/775 318/787 316/755 304/752 
f 320/788 308/776 307/753 319/756 
f 312/783 324/791 322/757 310/745 
f 323/790 311/780 310/745 322/757 
f 303/771 327/793 325/758 301/746 
f 329/794 296/760 295/747 328/759 
f 324/791 320/788 319/756 322/757 
f 321/789 323/790 322/757 319/756 
f 327/793 317/786 316/755 325/758 
f 315/785 329/794 328/759 313/754 
# 42 polygons

#
# object Box006
#

v  80.676361 53.691917 -30.245464
v  85.676361 53.691917 -30.245464
v  80.676361 58.691917 -30.245464
v  85.676361 58.691917 -30.245464
v  80.676361 53.691906 29.754536
v  85.676361 53.691906 29.754536
v  80.676361 58.691906 29.754536
v  85.676361 58.691906 29.754536
v  85.676361 53.691917 -25.445465
v  85.676361 53.691910 24.954536
v  80.676361 53.691910 24.954536
v  80.676361 53.691917 -25.445465
v  85.676361 58.691917 -25.445465
v  85.676361 58.691910 24.954536
v  80.676361 58.691917 -25.445465
v  80.676361 58.691910 24.954536
v  80.676361 98.691910 29.754543
v  85.676361 98.691910 29.754543
v  85.676361 98.691910 24.954544
v  80.676361 98.691910 24.954544
v  85.676361 98.691925 -30.245457
v  80.676361 98.691925 -30.245457
v  80.676361 98.691925 -25.445457
v  85.676361 98.691925 -25.445457
v  80.676361 93.691910 29.754543
v  85.676361 93.691910 29.754543
v  85.676361 93.691910 24.954544
v  80.676361 93.691910 24.954544
v  85.676361 93.691925 -30.245459
v  80.676361 93.691925 -30.245459
v  80.676361 93.691925 -25.445459
v  85.676361 93.691925 -25.445459
# 32 vertices

vt 1.000000 0.000000 0.000000
vt 0.000000 0.000000 0.000000
vt 1.000000 1.000000 0.000000
vt 0.000000 1.000000 0.000000
vt 0.000000 0.000000 0.000000
vt 1.000000 0.000000 0.000000
vt 0.000000 1.000000 0.000000
vt 1.000000 1.000000 0.000000
vt 0.000000 0.000000 0.000000
vt 1.000000 0.000000 0.000000
vt 0.000000 1.000000 0.000000
vt 1.000000 1.000000 0.000000
vt 0.000000 0.000000 0.000000
vt 1.000000 0.000000 0.000000
vt 0.000000 1.000000 0.000000
vt 1.000000 1.000000 0.000000
vt 0.000000 0.000000 0.000000
vt 1.000000 0.000000 0.000000
vt 0.000000 1.000000 0.000000
vt 1.000000 1.000000 0.000000
vt 0.000000 0.000000 0.000000
vt 1.000000 0.000000 0.000000
vt 0.000000 1.000000 0.000000
vt 1.000000 1.000000 0.000000
vt 1.000000 0.080000 0.000000
vt 1.000000 0.920000 0.000000
vt 0.000000 0.080000 0.000000
vt 0.000000 0.920000 0.000000
vt 0.000000 0.920000 0.000000
vt 0.000000 0.080000 0.000000
vt 1.000000 0.920000 0.000000
vt 1.000000 0.080000 0.000000
vt 1.000000 0.080000 0.000000
vt 1.000000 0.920000 0.000000
vt 0.000000 0.080000 0.000000
vt 0.000000 0.920000 0.000000
vt 1.000000 0.080000 0.000000
vt 1.000000 0.920000 0.000000
vt 0.000000 0.080000 0.000000
vt 0.000000 0.920000 0.000000
vt 1.000000 1.000000 0.000000
vt 0.000000 1.000000 0.000000
vt 0.000000 0.920000 0.000000
vt 1.000000 0.920000 0.000000
vt 0.000000 0.000000 0.000000
vt 1.000000 0.000000 0.000000
vt 1.000000 0.080000 0.000000
vt 0.000000 0.080000 0.000000
vt 1.000000 1.000000 0.000000
vt 0.000000 1.000000 0.000000
vt 0.000000 0.920000 0.000000
vt 1.000000 0.920000 0.000000
vt 0.000000 0.000000 0.000000
vt 1.000000 0.000000 0.000000
vt 1.000000 0.080000 0.000000
vt 0.000000 0.080000 0.000000
vt 0.000000 0.920000 0.000000
vt 1.000000 0.920000 0.000000
vt 0.000000 0.920000 0.000000
vt 0.000000 0.920000 0.000000
vt 1.000000 0.920000 0.000000
vt 0.000000 0.920000 0.000000
vt 1.000000 0.920000 0.000000
vt 1.000000 0.920000 0.000000
# 64 texture coords

o Box006
g Box006
usemtl 01___Default
f 331/796 333/798 334/799 332/797 
f 335/800 336/801 338/803 337/802 
f 339/820 340/821 341/824 342/825 
f 343/828 344/829 340/823 339/822 
f 345/832 346/833 344/831 343/830 
f 342/827 341/826 346/835 345/834 
f 340/821 336/807 335/806 341/824 
f 342/825 331/804 332/805 339/820 
f 344/829 338/811 336/810 340/823 
f 339/822 332/808 334/809 343/828 
f 350/839 347/836 348/837 349/838 
f 354/843 351/840 352/841 353/842 
f 341/826 335/819 337/818 346/835 
f 345/834 333/816 331/817 342/827 
f 337/815 338/814 356/845 355/844 
f 338/814 344/831 357/846 356/845 
f 344/831 346/833 358/847 357/846 
f 346/833 337/815 355/844 358/847 
f 334/812 333/813 360/849 359/848 
f 333/813 345/832 361/850 360/849 
f 345/832 343/830 362/851 361/850 
f 343/830 334/812 359/848 362/851 
f 356/845 348/837 347/836 355/844 
f 357/846 349/838 348/837 356/845 
f 355/844 347/836 350/839 358/847 
f 360/849 352/841 351/840 359/848 
f 361/850 353/842 352/841 360/849 
f 359/848 351/840 354/843 362/851 
f 350/839 349/838 354/852 353/853 
f 349/838 357/846 362/854 354/855 
f 357/846 358/847 361/856 362/857 
f 358/847 350/839 353/858 361/859 
# 32 polygons

#
# object Box007
#

v  83.805405 56.739037 -27.660107
v  83.805397 56.739037 27.330475
v  83.805397 96.287056 -27.660107
v  83.805389 96.287056 27.330475
v  82.389206 56.739037 -27.660107
v  82.389198 56.739037 27.330475
v  82.389206 96.287056 -27.660107
v  82.389198 96.287056 27.330475
# 8 vertices

vt 1.000000 0.000000 0.000000
vt 0.000000 0.000000 0.000000
vt 1.000000 1.000000 0.000000
vt 0.000000 1.000000 0.000000
vt 0.000000 0.000000 0.000000
vt 1.000000 0.000000 0.000000
vt 0.000000 1.000000 0.000000
vt 1.000000 1.000000 0.000000
vt 0.000000 0.000000 0.000000
vt 1.000000 0.000000 0.000000
vt 0.000000 1.000000 0.000000
vt 1.000000 1.000000 0.000000
vt 0.000000 0.000000 0.000000
vt 1.000000 0.000000 0.000000
vt 0.000000 1.000000 0.000000
vt 1.000000 1.000000 0.000000
vt 0.000000 0.000000 0.000000
vt 1.000000 0.000000 0.000000
vt 0.000000 1.000000 0.000000
vt 1.000000 1.000000 0.000000
vt 0.000000 0.000000 0.000000
vt 1.000000 0.000000 0.000000
vt 0.000000 1.000000 0.000000
vt 1.000000 1.000000 0.000000
# 24 texture coords

o Box007
g Box007
usemtl 02___Default
f 363/860 365/862 366/863 364/861 
f 367/864 368/865 370/867 369/866 
f 363/868 364/869 368/871 367/870 
f 364/872 366/873 370/875 368/874 
f 366/876 365/877 369/879 370/878 
f 365/880 363/881 367/883 369/882 
# 6 polygons

#
# object Box008
#

v  82.184067 57.283699 -1.489093
v  84.632278 57.283699 -1.489093
v  82.184067 95.701775 -1.489086
v  84.632278 95.701775 -1.489086
v  82.184067 57.283699 1.510907
v  84.632278 57.283699 1.510907
v  82.184067 95.701775 1.510914
v  84.632278 95.701775 1.510914
# 8 vertices

vt 1.000000 0.000000 0.000000
vt 0.000000 0.000000 0.000000
vt 1.000000 1.000000 0.000000
vt 0.000000 1.000000 0.000000
vt 0.000000 0.000000 0.000000
vt 1.000000 0.000000 0.000000
vt 0.000000 1.000000 0.000000
vt 1.000000 1.000000 0.000000
vt 0.000000 0.000000 0.000000
vt 1.000000 0.000000 0.000000
vt 0.000000 1.000000 0.000000
vt 1.000000 1.000000 0.000000
vt 0.000000 0.000000 0.000000
vt 1.000000 0.000000 0.000000
vt 0.000000 1.000000 0.000000
vt 1.000000 1.000000 0.000000
vt 0.000000 0.000000 0.000000
vt 1.000000 0.000000 0.000000
vt 0.000000 1.000000 0.000000
vt 1.000000 1.000000 0.000000
vt 0.000000 0.000000 0.000000
vt 1.000000 0.000000 0.000000
vt 0.000000 1.000000 0.000000
vt 1.000000 1.000000 0.000000
# 24 texture coords

o Box008
g Box008
usemtl 01___Default
f 371/884 373/886 374/887 372/885 
f 375/888 376/889 378/891 377/890 
f 371/892 372/893 376/895 375/894 
f 372/896 374/897 378/899 376/898 
f 374/900 373/901 377/903 378/902 
f 373/904 371/905 375/907 377/906 
# 6 polygons

#
# object Box009
#

v  82.184067 74.768318 27.285522
v  84.632278 74.768318 27.285522
v  82.184067 74.768326 -27.323181
v  84.632278 74.768326 -27.323181
v  82.184067 77.768318 27.285522
v  84.632278 77.768318 27.285522
v  82.184067 77.768326 -27.323181
v  84.632278 77.768326 -27.323181
# 8 vertices

vt 1.000000 0.000000 0.000000
vt 0.000000 0.000000 0.000000
vt 1.000000 1.000000 0.000000
vt 0.000000 1.000000 0.000000
vt 0.000000 0.000000 0.000000
vt 1.000000 0.000000 0.000000
vt 0.000000 1.000000 0.000000
vt 1.000000 1.000000 0.000000
vt 0.000000 0.000000 0.000000
vt 1.000000 0.000000 0.000000
vt 0.000000 1.000000 0.000000
vt 1.000000 1.000000 0.000000
vt 0.000000 0.000000 0.000000
vt 1.000000 0.000000 0.000000
vt 0.000000 1.000000 0.000000
vt 1.000000 1.000000 0.000000
vt 0.000000 0.000000 0.000000
vt 1.000000 0.000000 0.000000
vt 0.000000 1.000000 0.000000
vt 1.000000 1.000000 0.000000
vt 0.000000 0.000000 0.000000
vt 1.000000 0.000000 0.000000
vt 0.000000 1.000000 0.000000
vt 1.000000 1.000000 0.000000
# 24 texture coords

o Box009
g Box009
usemtl 01___Default
f 379/908 381/910 382/911 380/909 
f 383/912 384/913 386/915 385/914 
f 379/916 380/917 384/919 383/918 
f 380/920 382/921 386/923 384/922 
f 382/924 381/925 385/927 386/926 
f 381/928 379/929 383/931 385/930 
# 6 polygons

#
# object Box010
#

v  29.487564 209.508286 89.431480
v  49.487564 183.435333 89.431480
v  29.487564 209.508286 69.431480
v  49.487564 183.435333 69.431480
v  29.487564 237.713760 89.431480
v  49.487564 237.713760 89.431480
v  29.487564 237.713760 69.431480
v  49.487564 237.713760 69.431480
v  26.987564 237.713760 91.931480
v  51.987564 237.713760 91.931480
v  51.987564 237.713760 66.931480
v  26.987564 237.713760 66.931480
v  51.987564 254.708633 91.931480
v  26.987564 254.708633 91.931480
v  26.987564 254.708633 66.931480
v  51.987564 254.708633 66.931480
v  31.823956 254.708633 87.095085
v  47.151173 254.708633 87.095085
v  47.151173 254.708633 71.767876
v  31.823956 254.708633 71.767876
v  31.823956 247.223816 87.095085
v  47.151173 247.223816 87.095085
v  47.151173 247.223816 71.767876
v  31.823956 247.223816 71.767876
v  29.487564 237.713760 89.431480
v  49.487564 237.713760 89.431480
v  29.487564 237.713760 69.431480
v  49.487564 237.713760 69.431480
# 28 vertices

vt 1.000000 0.000000 0.000000
vt 0.000000 0.000000 0.000000
vt 1.000000 1.000000 0.000000
vt 0.000000 1.000000 0.000000
vt 0.000000 0.000000 0.000000
vt 1.000000 0.000000 0.000000
vt 0.000000 1.000000 0.000000
vt 1.000000 1.000000 0.000000
vt 0.000000 0.000000 0.000000
vt 1.000000 0.000000 0.000000
vt 0.000000 1.000000 0.000000
vt 1.000000 1.000000 0.000000
vt 0.000000 0.000000 0.000000
vt 1.000000 0.000000 0.000000
vt 0.000000 1.000000 0.000000
vt 1.000000 1.000000 0.000000
vt 0.000000 0.000000 0.000000
vt 1.000000 0.000000 0.000000
vt 0.000000 1.000000 0.000000
vt 1.000000 1.000000 0.000000
vt 0.000000 0.000000 0.000000
vt 1.000000 0.000000 0.000000
vt 1.000000 1.000000 0.000000
vt 0.000000 1.000000 0.000000
vt 1.000000 0.000000 0.000000
vt 0.000000 0.000000 0.000000
vt 0.000000 1.000000 0.000000
vt 1.000000 1.000000 0.000000
vt 0.000000 0.000000 0.000000
vt 1.000000 0.000000 0.000000
vt 1.000000 1.000000 0.000000
vt 0.000000 1.000000 0.000000
vt 0.000000 0.000000 0.000000
vt 1.000000 0.000000 0.000000
vt 1.000000 1.000000 0.000000
vt 0.000000 1.000000 0.000000
vt 0.000000 0.000000 0.000000
vt 1.000000 0.000000 0.000000
vt 0.000000 1.000000 0.000000
vt 1.000000 1.000000 0.000000
# 40 texture coords

o Box010
g Box010
usemtl 1___Default
f 387/932 389/934 390/935 388/933 
f 387/936 388/937 392/939 391/938 
f 388/940 390/941 394/943 392/942 
f 390/944 389/945 393/947 394/946 
f 389/948 387/949 391/951 393/950 
usemtl 01___Default
f 395/952 396/953 399/956 400/957 
f 396/953 397/954 402/959 399/956 
f 397/954 398/955 401/958 402/959 
f 398/955 395/952 400/957 401/958 
f 411/968 412/969 396/953 395/952 
f 412/969 414/971 397/954 396/953 
f 414/971 413/970 398/955 397/954 
f 413/970 411/968 395/952 398/955 
f 407/964 408/965 409/966 410/967 
f 400/957 399/956 404/961 403/960 
f 399/956 402/959 405/962 404/961 
f 402/959 401/958 406/963 405/962 
f 401/958 400/957 403/960 406/963 
f 403/960 404/961 408/965 407/964 
f 404/961 405/962 409/966 408/965 
f 405/962 406/963 410/967 409/966 
f 406/963 403/960 407/964 410/967 
# 22 polygons

#
# object Box011
#

v  -37.938477 55.538528 107.644089
v  35.131195 55.538528 107.644089
v  -37.938477 55.538528 105.195877
v  35.131195 55.538528 105.195877
v  -37.938477 61.538528 107.644089
v  35.131195 61.538528 107.644089
v  -37.938477 61.538528 105.195877
v  35.131195 61.538528 105.195877
# 8 vertices

vt 1.000000 0.000000 0.000000
vt 0.000000 0.000000 0.000000
vt 1.000000 1.000000 0.000000
vt 0.000000 1.000000 0.000000
vt 0.000000 0.000000 0.000000
vt 1.000000 0.000000 0.000000
vt 0.000000 1.000000 0.000000
vt 1.000000 1.000000 0.000000
vt 0.000000 0.000000 0.000000
vt 1.000000 0.000000 0.000000
vt 0.000000 1.000000 0.000000
vt 1.000000 1.000000 0.000000
vt 0.000000 0.000000 0.000000
vt 1.000000 0.000000 0.000000
vt 0.000000 1.000000 0.000000
vt 1.000000 1.000000 0.000000
vt 0.000000 0.000000 0.000000
vt 1.000000 0.000000 0.000000
vt 0.000000 1.000000 0.000000
vt 1.000000 1.000000 0.000000
vt 0.000000 0.000000 0.000000
vt 1.000000 0.000000 0.000000
vt 0.000000 1.000000 0.000000
vt 1.000000 1.000000 0.000000
# 24 texture coords

o Box011
g Box011
usemtl 01___Default
f 415/972 417/974 418/975 416/973 
f 419/976 420/977 422/979 421/978 
f 415/980 416/981 420/983 419/982 
f 416/984 418/985 422/987 420/986 
f 418/988 417/989 421/991 422/990 
f 417/992 415/993 419/995 421/994 
# 6 polygons

